<?xml version="1.0" encoding="UTF-8" standalone="no"?>
<svg width="120px" height="32px" viewBox="0 0 120 32" version="1.1" xmlns="http://www.w3.org/2000/svg" xmlns:xlink="http://www.w3.org/1999/xlink">
    <!-- Generator: Sketch 40 (33762) - http://www.bohemiancoding.com/sketch -->
    <title>betsson_logo_white</title>
    <desc>Created with Sketch.</desc>
    <defs></defs>
    <g id="Casino-(Mobile)" stroke="none" stroke-width="1" fill="none" fill-rule="evenodd">
        <g id="betsson_logo_white" fill="#FFFFFF">
            <g id="Betsson-RGB-logotype" transform="translate(0.000000, 5.000000)">
                <g id="Group">
                    <path d="M15.153527,13.4863905 C15.153527,16.104142 13.1120332,18.7550296 9.21161826,18.7550296 C6.97095436,18.7550296 4.59751037,17.3136095 3.21991701,15.8556213 C3.18672199,15.3585799 3.18672199,11.0674556 3.21991701,10.5207101 C4.44813278,9.26153846 6.2406639,7.85325444 9.26141079,7.85325444 C12.1161826,7.85325444 15.153527,9.32781065 15.153527,13.4863905 M9.41078838,5.23550296 C6.48962656,5.23550296 4.84647303,6.16331361 3.23651452,7.33964497 L3.23651452,1.06035503 C3.23651452,0.480473373 2.75518672,0 2.17427386,0 L0.282157676,0 L0.282157676,17.8272189 L0,20.9254438 L1.31120332,20.9254438 L1.74273859,20.9254438 C2.52282158,20.9254438 2.70539419,20.3952663 2.80497925,19.9147929 L3.05394191,18.9704142 C4.82987552,20.3952663 6.42323651,21.3727811 9.69294606,21.3727811 C15.8838174,21.3727811 18.1244813,16.6177515 18.1244813,13.4366864 C18.1078838,10.3715976 16.2821577,5.23550296 9.41078838,5.23550296" id="Shape"></path>
                    <path d="M22.6887967,11.4485207 C23.4190871,9.06272189 25.2780083,7.8035503 28.0497925,7.8035503 C32.0829876,7.8035503 33.2448133,10.3550296 33.560166,11.4485207 L22.6887967,11.4485207 L22.6887967,11.4485207 Z M27.8506224,5.18579882 C23.0373444,5.18579882 19.5352697,8.54911243 19.5352697,13.1881657 C19.5352697,17.9100592 23.153527,21.3230769 28.1327801,21.3230769 C32.9460581,21.3230769 34.5892116,19.5668639 36.033195,18.0260355 L36.5809129,17.4461538 L34.2074689,15.739645 L33.9253112,16.104142 C33.0456432,17.1976331 31.8340249,18.7053254 28.3485477,18.7053254 C24.813278,18.7053254 22.9045643,16.4023669 22.5394191,14.0662722 L36.7966805,14.0662722 L36.813278,13.4863905 C36.813278,11.0674556 36.0995851,9.11242604 34.6721992,7.67100592 C33.0954357,6.06390533 30.6721992,5.18579882 27.8506224,5.18579882 L27.8506224,5.18579882 Z" id="Shape"></path>
                    <path d="M45.7593361,18.7881657 C43.5518672,18.7881657 43.120332,18.0426036 43.120332,16.7668639 L43.120332,8.31715976 L48.9128631,8.31715976 L48.9128631,6.75976331 C48.9128631,6.17988166 48.4315353,5.69940828 47.8506224,5.69940828 L43.1037344,5.69940828 L43.1037344,1.92189349 C43.1037344,1.34201183 42.6224066,0.878106509 42.0414938,0.878106509 L40.1493776,0.878106509 L40.1493776,5.71597633 L37.0622407,5.71597633 L37.0622407,8.33372781 L40.1659751,8.33372781 L40.1659751,16.9988166 C40.1659751,18.208284 40.1659751,21.4059172 45.2780083,21.4059172 C46.2240664,21.4059172 47.3692946,21.2402367 49.0124481,20.991716 L49.3112033,20.9420118 L49.3112033,18.2745562 L48.6970954,18.3905325 C47.5684647,18.6224852 46.7551867,18.7881657 45.7593361,18.7881657" id="Shape"></path>
                    <path d="M59.0207469,11.7301775 C56.5477178,11.4319527 54.406639,11.183432 54.406639,9.84142012 C54.406639,8.0852071 56.813278,7.82011834 58.2406639,7.82011834 C60.7136929,7.82011834 62.6058091,8.64852071 63.9004149,10.3053254 L64.1327801,10.6035503 L66.1742739,8.74792899 L65.9917012,8.49940828 C65.4107884,7.68757396 63.6514523,5.20236686 58.2738589,5.20236686 C54.9875519,5.20236686 51.4688797,6.46153846 51.4688797,9.9739645 C51.4688797,13.5692308 55.3029046,14.0331361 58.6887967,14.4473373 C61.3112033,14.7621302 63.5850622,15.043787 63.5850622,16.6011834 C63.5850622,18.1751479 61.3112033,18.7218935 59.3692946,18.7218935 C56.7136929,18.7218935 54.5892116,17.7443787 53.0456432,15.7893491 L52.813278,15.4911243 L50.6224066,17.495858 L50.8381743,17.7609467 C52.9294606,20.1964497 55.5850622,21.339645 59.186722,21.339645 C63.8672199,21.339645 66.5560166,19.5502959 66.5560166,16.435503 C66.5394191,12.6248521 62.5394191,12.1443787 59.0207469,11.7301775" id="Shape"></path>
                    <path d="M76.3485477,11.7301775 C73.8755187,11.4319527 71.7344398,11.183432 71.7344398,9.84142012 C71.7344398,8.0852071 74.1410788,7.82011834 75.5684647,7.82011834 C78.0414938,7.82011834 79.93361,8.64852071 81.2282158,10.3053254 L81.4605809,10.6035503 L83.5020747,8.74792899 L83.3195021,8.49940828 C82.7385892,7.68757396 80.9792531,5.20236686 75.6016598,5.20236686 C72.3153527,5.20236686 68.7966805,6.46153846 68.7966805,9.9739645 C68.7966805,13.5692308 72.6307054,14.0331361 76.0165975,14.4473373 C78.6390041,14.7621302 80.9128631,15.043787 80.9128631,16.6011834 C80.9128631,18.1751479 78.6390041,18.7218935 76.6970954,18.7218935 C74.0414938,18.7218935 71.9170124,17.7443787 70.373444,15.7893491 L70.1410788,15.4911243 L67.9502075,17.495858 L68.1659751,17.7609467 C70.2572614,20.1964497 72.9128631,21.339645 76.5145228,21.339645 C81.1950207,21.339645 83.8838174,19.5502959 83.8838174,16.435503 C83.8506224,12.6248521 79.8672199,12.1443787 76.3485477,11.7301775" id="Shape"></path>
                    <path d="M99.8340249,13.304142 C99.8340249,16.6508876 97.626556,18.7384615 94.0580913,18.7384615 C90.5228216,18.7384615 88.2489627,16.6011834 88.2489627,13.304142 C88.2489627,10.6698225 90.0746888,7.83668639 94.0580913,7.83668639 C98.0414938,7.83668639 99.8340249,10.5704142 99.8340249,13.304142 M94.0580913,5.21893491 C88.9792531,5.21893491 85.2946058,8.49940828 85.2946058,13.0224852 C85.2946058,18.1585799 88.6473029,21.356213 94.0580913,21.356213 C99.4522822,21.356213 102.788382,18.1585799 102.788382,13.0224852 C102.788382,8.49940828 99.120332,5.21893491 94.0580913,5.21893491" id="Shape"></path>
                    <path d="M113.609959,5.21893491 C111.585062,5.21893491 109.692946,5.93136095 107.834025,7.38934911 L107.834025,6.71005917 C107.834025,6.13017751 107.352697,5.64970414 106.771784,5.64970414 L104.879668,5.64970414 L104.879668,20.8923077 L107.834025,20.8923077 L107.834025,10.5372781 C108.829876,9.49349112 110.838174,7.82011834 113.344398,7.82011834 C114.622407,7.82011834 115.568465,8.13491124 116.182573,8.76449704 C116.763485,9.36094675 117.045643,10.2390533 117.029046,11.3988166 L117.029046,20.9088757 L119.983402,20.9088757 L119.983402,10.9680473 C119.966805,5.96449704 115.983402,5.21893491 113.609959,5.21893491" id="Shape"></path>
                </g>
            </g>
        </g>
    </g>
</svg>